<svg xmlns="http://www.w3.org/2000/svg" viewBox="0 0 600 600" width="600" height="600">
    <style>
        /* <![CDATA[ */
    
        #scale_numbers text {
            alignment-baseline: middle;
        }

        /* ]]> */
    </style>
    <!-- https://stackoverflow.com/questions/8193675/draw-a-hollow-circle-in-svg -->
    <path d="M 300, 300 m 0, -300 a 300, 300, 0, 1, 0, 1, 0 Z m 0 20 a 280, 280, 0, 1, 1, -1, 0Z" shape-rendering="geometricPrecision" fill="#0D3B66" id="clock_rim"/>
    <!-- https://www.smashingmagazine.com/2019/03/svg-circle-decomposition-paths/ -->
    <path d="M 25 300 a 275 275 0 1 0 550 0 a 275 275 0 1 0 -550 0z" shape-rendering="geometricPrecision" fill="#D3DBE3" id="clock_face"/>
    <path d="M 300 300 L 30 300" shape-rendering="geometricPrecision" stroke="#0C365D" stroke-width="1.5" id="clock_second" />
    <path d="M 300 300 L 60 300" shape-rendering="geometricPrecision" stroke="#0C365D" stroke-width="3" id="clock_minute" transform="rotate(-10 300 300)"/>
    <path d="M 300 300 L 150 300" shape-rendering="geometricPrecision" stroke="#0C365D" stroke-width="6" id="clock_hour" transform="rotate(-100 300 300)"/>
    <path d="M 280 300 a 20 20 0 1 0 40 0 a 20 20 0 1 0 -40 0z" shape-rendering="geometricPrecision" fill="#051626" id="clock_center"/>
    <g id="clock_scale">
        <g id="scale_bars">
            <path d="M 300 70 L 300 28" shape-rendering="geometricPrecision" stroke="#4F708F" stroke-width="2" id="scale_multiple0"/>
            <path d="M 300 50 L 300 28" shape-rendering="geometricPrecision" stroke="#4F708F" stroke-width="2" transform="rotate(6 300 300)" id="scale_multiple1"/>
            <path d="M 300 50 L 300 28" shape-rendering="geometricPrecision" stroke="#4F708F" stroke-width="2" transform="rotate(12 300 300)" id="scale_multiple2"/>
            <path d="M 300 50 L 300 28" shape-rendering="geometricPrecision" stroke="#4F708F" stroke-width="2" transform="rotate(18 300 300)" id="scale_multiple3"/>
            <path d="M 300 50 L 300 28" shape-rendering="geometricPrecision" stroke="#4F708F" stroke-width="2" transform="rotate(24 300 300)" id="scale_multiple4"/>
            <path d="M 300 70 L 300 28" shape-rendering="geometricPrecision" stroke="#4F708F" stroke-width="2" transform="rotate(30 300 300)" id="scale_multiple5"/>
            <path d="M 300 50 L 300 28" shape-rendering="geometricPrecision" stroke="#4F708F" stroke-width="2" transform="rotate(36 300 300)" id="scale_multiple6"/>
            <path d="M 300 50 L 300 28" shape-rendering="geometricPrecision" stroke="#4F708F" stroke-width="2" transform="rotate(42 300 300)" id="scale_multiple7"/>
            <path d="M 300 50 L 300 28" shape-rendering="geometricPrecision" stroke="#4F708F" stroke-width="2" transform="rotate(48 300 300)" id="scale_multiple8"/>
            <path d="M 300 50 L 300 28" shape-rendering="geometricPrecision" stroke="#4F708F" stroke-width="2" transform="rotate(54 300 300)" id="scale_multiple9"/>
            <path d="M 300 70 L 300 28" shape-rendering="geometricPrecision" stroke="#4F708F" stroke-width="2" transform="rotate(60 300 300)" id="scale_multiple10"/>
            <path d="M 300 50 L 300 28" shape-rendering="geometricPrecision" stroke="#4F708F" stroke-width="2" transform="rotate(66 300 300)" id="scale_multiple11"/>
            <path d="M 300 50 L 300 28" shape-rendering="geometricPrecision" stroke="#4F708F" stroke-width="2" transform="rotate(72 300 300)" id="scale_multiple12"/>
            <path d="M 300 50 L 300 28" shape-rendering="geometricPrecision" stroke="#4F708F" stroke-width="2" transform="rotate(78 300 300)" id="scale_multiple13"/>
            <path d="M 300 50 L 300 28" shape-rendering="geometricPrecision" stroke="#4F708F" stroke-width="2" transform="rotate(84 300 300)" id="scale_multiple14"/>
            <path d="M 300 70 L 300 28" shape-rendering="geometricPrecision" stroke="#4F708F" stroke-width="2" transform="rotate(90 300 300)" id="scale_multiple15"/>
            <path d="M 300 50 L 300 28" shape-rendering="geometricPrecision" stroke="#4F708F" stroke-width="2" transform="rotate(96 300 300)" id="scale_multiple16"/>
            <path d="M 300 50 L 300 28" shape-rendering="geometricPrecision" stroke="#4F708F" stroke-width="2" transform="rotate(102 300 300)" id="scale_multiple17"/>
            <path d="M 300 50 L 300 28" shape-rendering="geometricPrecision" stroke="#4F708F" stroke-width="2" transform="rotate(108 300 300)" id="scale_multiple18"/>
            <path d="M 300 50 L 300 28" shape-rendering="geometricPrecision" stroke="#4F708F" stroke-width="2" transform="rotate(114 300 300)" id="scale_multiple19"/>
            <path d="M 300 70 L 300 28" shape-rendering="geometricPrecision" stroke="#4F708F" stroke-width="2" transform="rotate(120 300 300)" id="scale_multiple20"/>
            <path d="M 300 50 L 300 28" shape-rendering="geometricPrecision" stroke="#4F708F" stroke-width="2" transform="rotate(126 300 300)" id="scale_multiple21"/>
            <path d="M 300 50 L 300 28" shape-rendering="geometricPrecision" stroke="#4F708F" stroke-width="2" transform="rotate(132 300 300)" id="scale_multiple22"/>
            <path d="M 300 50 L 300 28" shape-rendering="geometricPrecision" stroke="#4F708F" stroke-width="2" transform="rotate(138 300 300)" id="scale_multiple23"/>
            <path d="M 300 50 L 300 28" shape-rendering="geometricPrecision" stroke="#4F708F" stroke-width="2" transform="rotate(144 300 300)" id="scale_multiple24"/>
            <path d="M 300 70 L 300 28" shape-rendering="geometricPrecision" stroke="#4F708F" stroke-width="2" transform="rotate(150 300 300)" id="scale_multiple25"/>
            <path d="M 300 50 L 300 28" shape-rendering="geometricPrecision" stroke="#4F708F" stroke-width="2" transform="rotate(156 300 300)" id="scale_multiple26"/>
            <path d="M 300 50 L 300 28" shape-rendering="geometricPrecision" stroke="#4F708F" stroke-width="2" transform="rotate(162 300 300)" id="scale_multiple27"/>
            <path d="M 300 50 L 300 28" shape-rendering="geometricPrecision" stroke="#4F708F" stroke-width="2" transform="rotate(168 300 300)" id="scale_multiple28"/>
            <path d="M 300 50 L 300 28" shape-rendering="geometricPrecision" stroke="#4F708F" stroke-width="2" transform="rotate(174 300 300)" id="scale_multiple29"/>
            <path d="M 300 70 L 300 28" shape-rendering="geometricPrecision" stroke="#4F708F" stroke-width="2" transform="rotate(180 300 300)" id="scale_multiple30"/>
            <path d="M 300 50 L 300 28" shape-rendering="geometricPrecision" stroke="#4F708F" stroke-width="2" transform="rotate(186 300 300)" id="scale_multiple31"/>
            <path d="M 300 50 L 300 28" shape-rendering="geometricPrecision" stroke="#4F708F" stroke-width="2" transform="rotate(192 300 300)" id="scale_multiple32"/>
            <path d="M 300 50 L 300 28" shape-rendering="geometricPrecision" stroke="#4F708F" stroke-width="2" transform="rotate(198 300 300)" id="scale_multiple33"/>
            <path d="M 300 50 L 300 28" shape-rendering="geometricPrecision" stroke="#4F708F" stroke-width="2" transform="rotate(204 300 300)" id="scale_multiple34"/>
            <path d="M 300 70 L 300 28" shape-rendering="geometricPrecision" stroke="#4F708F" stroke-width="2" transform="rotate(210 300 300)" id="scale_multiple35"/>
            <path d="M 300 50 L 300 28" shape-rendering="geometricPrecision" stroke="#4F708F" stroke-width="2" transform="rotate(216 300 300)" id="scale_multiple36"/>
            <path d="M 300 50 L 300 28" shape-rendering="geometricPrecision" stroke="#4F708F" stroke-width="2" transform="rotate(222 300 300)" id="scale_multiple37"/>
            <path d="M 300 50 L 300 28" shape-rendering="geometricPrecision" stroke="#4F708F" stroke-width="2" transform="rotate(228 300 300)" id="scale_multiple38"/>
            <path d="M 300 50 L 300 28" shape-rendering="geometricPrecision" stroke="#4F708F" stroke-width="2" transform="rotate(234 300 300)" id="scale_multiple39"/>
            <path d="M 300 70 L 300 28" shape-rendering="geometricPrecision" stroke="#4F708F" stroke-width="2" transform="rotate(240 300 300)" id="scale_multiple40"/>
            <path d="M 300 50 L 300 28" shape-rendering="geometricPrecision" stroke="#4F708F" stroke-width="2" transform="rotate(246 300 300)" id="scale_multiple41"/>
            <path d="M 300 50 L 300 28" shape-rendering="geometricPrecision" stroke="#4F708F" stroke-width="2" transform="rotate(252 300 300)" id="scale_multiple42"/>
            <path d="M 300 50 L 300 28" shape-rendering="geometricPrecision" stroke="#4F708F" stroke-width="2" transform="rotate(258 300 300)" id="scale_multiple43"/>
            <path d="M 300 50 L 300 28" shape-rendering="geometricPrecision" stroke="#4F708F" stroke-width="2" transform="rotate(264 300 300)" id="scale_multiple44"/>
            <path d="M 300 70 L 300 28" shape-rendering="geometricPrecision" stroke="#4F708F" stroke-width="2" transform="rotate(270 300 300)" id="scale_multiple45"/>
            <path d="M 300 50 L 300 28" shape-rendering="geometricPrecision" stroke="#4F708F" stroke-width="2" transform="rotate(276 300 300)" id="scale_multiple46"/>
            <path d="M 300 50 L 300 28" shape-rendering="geometricPrecision" stroke="#4F708F" stroke-width="2" transform="rotate(282 300 300)" id="scale_multiple47"/>
            <path d="M 300 50 L 300 28" shape-rendering="geometricPrecision" stroke="#4F708F" stroke-width="2" transform="rotate(288 300 300)" id="scale_multiple48"/>
            <path d="M 300 50 L 300 28" shape-rendering="geometricPrecision" stroke="#4F708F" stroke-width="2" transform="rotate(294 300 300)" id="scale_multiple49"/>
            <path d="M 300 70 L 300 28" shape-rendering="geometricPrecision" stroke="#4F708F" stroke-width="2" transform="rotate(300 300 300)" id="scale_multiple50"/>
            <path d="M 300 50 L 300 28" shape-rendering="geometricPrecision" stroke="#4F708F" stroke-width="2" transform="rotate(306 300 300)" id="scale_multiple51"/>
            <path d="M 300 50 L 300 28" shape-rendering="geometricPrecision" stroke="#4F708F" stroke-width="2" transform="rotate(312 300 300)" id="scale_multiple52"/>
            <path d="M 300 50 L 300 28" shape-rendering="geometricPrecision" stroke="#4F708F" stroke-width="2" transform="rotate(318 300 300)" id="scale_multiple53"/>
            <path d="M 300 50 L 300 28" shape-rendering="geometricPrecision" stroke="#4F708F" stroke-width="2" transform="rotate(324 300 300)" id="scale_multiple54"/>
            <path d="M 300 70 L 300 28" shape-rendering="geometricPrecision" stroke="#4F708F" stroke-width="2" transform="rotate(330 300 300)" id="scale_multiple55"/>
            <path d="M 300 50 L 300 28" shape-rendering="geometricPrecision" stroke="#4F708F" stroke-width="2" transform="rotate(336 300 300)" id="scale_multiple56"/>
            <path d="M 300 50 L 300 28" shape-rendering="geometricPrecision" stroke="#4F708F" stroke-width="2" transform="rotate(342 300 300)" id="scale_multiple57"/>
            <path d="M 300 50 L 300 28" shape-rendering="geometricPrecision" stroke="#4F708F" stroke-width="2" transform="rotate(348 300 300)" id="scale_multiple58"/>
            <path d="M 300 50 L 300 28" shape-rendering="geometricPrecision" stroke="#4F708F" stroke-width="2" transform="rotate(354 300 300)" id="scale_multiple59"/>
        </g>
        <g id="scale_numbers" style="fill: #7B94AB; stroke: none; font-size: 35px; font-family: Helvetica; text-anchor: middle;" >
            <!-- https://stackoverflow.com/questions/14829621/formula-to-find-points-on-the-circumference-of-a-circle-given-the-center-of-the -->
            <text x="300" y="95" text-rendering="geometricPrecision" id="scale_number12">12</text>
            <text x="402" y="123" text-rendering="geometricPrecision" id="scale_number1">1</text>
            <text x="483" y="200" text-rendering="geometricPrecision" id="scale_number2">2</text>
            <text x="515" y="305" text-rendering="geometricPrecision" id="scale_number3">3</text>
            <text x="483" y="400" text-rendering="geometricPrecision" id="scale_number4">4</text>
            <text x="300" y="95" style="fill: #7B94AB; stroke: none; font-size: 30px; font-family: Helvetica; text-anchor: middle;" text-rendering="geometricPrecision" transform="rotate(150 300 300) rotate(-150 300 90)" id="scale_number5">5</text>
            <text x="300" y="95" style="fill: #7B94AB; stroke: none; font-size: 30px; font-family: Helvetica; text-anchor: middle;" text-rendering="geometricPrecision" transform="rotate(180 300 300) rotate(-180 300 90)" id="scale_number6">6</text>
            <text x="300" y="95" style="fill: #7B94AB; stroke: none; font-size: 30px; font-family: Helvetica; text-anchor: middle;" text-rendering="geometricPrecision" transform="rotate(210 300 300) rotate(-210 300 90)" id="scale_number7">7</text>
            <text x="300" y="95" style="fill: #7B94AB; stroke: none; font-size: 30px; font-family: Helvetica; text-anchor: middle;" text-rendering="geometricPrecision" transform="rotate(240 300 300) rotate(-240 300 90)" id="scale_number8">8</text>
            <text x="300" y="95" style="fill: #7B94AB; stroke: none; font-size: 30px; font-family: Helvetica; text-anchor: middle;" text-rendering="geometricPrecision" transform="rotate(270 300 300) rotate(-270 300 90)" id="scale_number9">9</text>
            <text x="300" y="95" style="fill: #7B94AB; stroke: none; font-size: 30px; font-family: Helvetica; text-anchor: middle;" text-rendering="geometricPrecision" transform="rotate(300 300 300) rotate(-300 300 90)" id="scale_number10">10</text>
            <text x="300" y="95" style="fill: #7B94AB; stroke: none; font-size: 30px; font-family: Helvetica; text-anchor: middle;" text-rendering="geometricPrecision" transform="rotate(330 300 300) rotate(-330 300 90)" id="scale_number11">11</text>
        </g>
    </g>
</svg>
